<svg width="24" height="24" viewBox="0 0 24 24" fill="none" xmlns="http://www.w3.org/2000/svg">
<path d="M18.8905 16.3357C19.208 16.1236 19.5895 16 20 16C21.1046 16 22 16.8954 22 18C22 19.1046 21.1046 20 20 20C18.8954 20 18 19.1046 18 18C18 17.3059 18.3536 16.6944 18.8905 16.3357ZM18.8905 16.3357L13.1095 7.66428M13.1095 7.66428C12.792 7.87635 12.4105 8 12 8C11.3457 8 10.7648 7.68581 10.3999 7.20007M13.1095 7.66428C13.6464 7.30564 14 6.69411 14 6C14 4.89543 13.1046 4 12 4C10.8954 4 10 4.89543 10 6C10 6.45027 10.1488 6.86579 10.3999 7.20007M10.3999 7.20007L5.60009 10.7999M5.60009 10.7999C5.8512 11.1342 6 11.5497 6 12C6 13.1046 5.10457 14 4 14C2.89543 14 2 13.1046 2 12C2 10.8954 2.89543 10 4 10C4.6543 10 5.23521 10.3142 5.60009 10.7999Z" stroke="#28303F" stroke-width="1.5" stroke-linecap="round" stroke-linejoin="round"/>
</svg>
