<svg width="33" height="33" viewBox="0 0 33 33" fill="none" xmlns="http://www.w3.org/2000/svg">
<g clip-path="url(#clip0_136_1790)">
<path d="M32.3039 2.96873L17.3304 29.7439C17.0212 30.2967 16.2269 30.3 15.9132 29.7499L0.642814 2.97122C0.3009 2.37181 0.813522 1.64565 1.49287 1.76717L16.4824 4.44633C16.5781 4.46342 16.676 4.46325 16.7716 4.44583L31.4476 1.77091C32.1247 1.64752 32.6397 2.36808 32.3039 2.96873Z" fill="url(#paint0_linear_136_1790)"/>
<path d="M23.6227 0.115707L12.542 2.28698C12.4534 2.30432 12.3732 2.3506 12.3138 2.41853C12.2544 2.48646 12.2193 2.5722 12.214 2.66226L11.5324 14.1743C11.5287 14.2374 11.5397 14.3006 11.5646 14.3587C11.5895 14.4168 11.6276 14.4684 11.6759 14.5092C11.7243 14.55 11.7814 14.579 11.8429 14.5939C11.9044 14.6088 11.9685 14.6091 12.0301 14.5949L15.1152 13.8829C15.4038 13.8163 15.6646 14.0706 15.6052 14.3608L14.6887 18.8492C14.6271 19.1512 14.9106 19.4095 15.2056 19.3198L17.1111 18.741C17.4065 18.6513 17.6904 18.9103 17.6278 19.2126L16.1713 26.2627C16.0801 26.7037 16.6667 26.9442 16.9113 26.5661L17.0748 26.3136L26.104 8.29401C26.2553 7.99231 25.9944 7.64828 25.6632 7.71228L22.4875 8.32514C22.1892 8.38266 21.9353 8.10475 22.0194 7.81289L24.0921 0.627831C24.1764 0.335224 23.9214 0.0571855 23.6227 0.115707Z" fill="url(#paint1_linear_136_1790)"/>
</g>
<defs>
<linearGradient id="paint0_linear_136_1790" x1="0.269976" y1="3.92741" x2="16.4188" y2="25.8589" gradientUnits="userSpaceOnUse">
<stop stop-color="#41D1FF"/>
<stop offset="1" stop-color="#BD34FE"/>
</linearGradient>
<linearGradient id="paint1_linear_136_1790" x1="17.8717" y1="0.705249" x2="21.1938" y2="23.4942" gradientUnits="userSpaceOnUse">
<stop stop-color="#FFEA83"/>
<stop offset="0.08333" stop-color="#FFDD35"/>
<stop offset="1" stop-color="#FFA800"/>
</linearGradient>
<clipPath id="clip0_136_1790">
<rect width="31.88" height="32" fill="white" transform="translate(0.531616 0.107849)"/>
</clipPath>
</defs>
</svg>
